<svg xmlns="http://www.w3.org/2000/svg" width="300" height="300" viewBox="0 0 300 300">
  <title>Grumpy cat</title>
  <desc>Grumpy cat by Jayden Seric.</desc>
  <path fill="hsl(0,0%,6%)" d="M196.454 298.632l-.002.003c0 1.352-2.092.534-4.188-1.638-2.106-2.184-4.09-2.397-3.318-.357.204.538-.21 1.204-.92 1.48-.71.277-1.399.173-1.532-.23s-.687-.557-1.233-.347c-.68.264-1.246-.57-1.8-2.656-.67-2.527-.983-2.893-1.848-2.167-.572.483-1.042 1.494-1.042 2.25 0 .755-.16 1.372-.36 1.372-.992 0-3.158-3.042-3.592-5.046-.27-1.248-.81-2.268-1.2-2.268-.388 0-.506.328-.26.73.246.403.064.733-.404.733-.492 0-.69.613-.47 1.463.208.804.106 1.464-.224 1.464-1.096 0-1.092-2.463.01-6 1.146-3.678 2.17-4.59 2.17-1.93 0 .868 1.033 2.515 2.296 3.658 1.262 1.142 2.54 2.076 2.838 2.076.944 0 1.617-3.206.737-3.504-.45-.152-.818-.782-.818-1.402 0-.918.2-.957 1.083-.215.92.774 1.08.595 1.07-1.19-.007-1.624-.168-1.852-.71-1.004-.565.888-.7.782-.71-.548-.005-.905.261-1.647.595-1.647.99 0 2.28 3.54 1.775 4.874-.368.97-.182 1.12.875.71.962-.374 1.814.037 3.012 1.45.92 1.084 1.694 2.332 1.722 2.772.028.44.513-.472 1.073-2.027.564-1.555.842-3.127.62-3.493-.225-.366.023-.574.55-.464.584.123.933-.447.896-1.465-.032-.915.292-1.545.722-1.395.43.149.676 1.006.546 1.904-.207 1.445-.063 1.54 1.257.825 1.163-.631 1.888-.545 3.303.395.996.66 1.812 1.494 1.812 1.85 0 1.011 1.227.762 2.474-.502 1.032-1.045 1.135-1.017 1.135.323 0 .81.3 1.66.667 1.89.958.6 1.322-1.798.652-4.308-.316-1.18-.426-2.295-.246-2.477.18-.183 1.221.701 2.314 1.964 1.093 1.26 2.483 2.283 3.09 2.27.975-.02.973-.126-.025-.914-1.334-1.055-2.344-3.452-1.454-3.452.342 0 .81.494 1.037 1.098.228.603.903 1.097 1.498 1.097.67 0 .924-.422.664-1.105-.3-.794-.088-.978.754-.65 1.528.595 3.452-1.048 2.99-2.555-.508-1.659.543-3.058 2.185-2.904 2.85.267 3.878-.088 3.458-1.198-.473-1.252.67-1.427 2.577-.392 1.571.85 5.824-.565 5.824-1.94 0-1.316 2.037-.336 2.322 1.114.156.795.415.933.75.395.281-.452-.242-1.645-1.162-2.652l-1.673-1.83h1.686c.927 0 1.687.29 1.687.64 0 .352.568.614 1.263.582.762-.034.903-.204.356-.427-.498-.205-.723-.672-.498-1.04.528-.866 3.21-.872 3.21-.006 0 .364.568.518 1.262.34.931-.236 1.595.486 2.525 2.754.693 1.69 1.138 3.197.988 3.35-.152.152-.8-.256-1.442-.908-.878-.89-1.19-.944-1.254-.217-.048.531-.033 1.377.032 1.877.064.503-.983 1.443-2.326 2.093-1.978.956-2.379 1.513-2.113 2.928.188 1-.016 1.75-.476 1.75-.445 0-.805.658-.805 1.463s.323 1.463.72 1.463c.397 0 .722-.494.722-1.097 0-.604.36-1.096.798-1.096.486 0 .586.5.256 1.28-.299.704-.517 2.529-.487 4.056l.057 2.775-2.757-.26c-1.516-.144-3.539-.779-4.494-1.414-1.412-.937-1.966-.982-2.968-.24-.677.502-1.232 1.465-1.232 2.138 0 .936-.299 1.066-1.263.556-1.686-.897-4.552.254-5.006 2.01-.414 1.605-3.3 2.23-7.89 1.705-2.086-.238-2.94-.644-2.698-1.282.195-.515-.015-1.166-.465-1.45-.484-.3-.98.11-1.21 1-.437 1.694-3.05 2.864-3.767 1.687-.547-.898-6.573-.253-6.573.702zm17.784-2.657c.23.604.544 1.098.7 1.098.156 0 .284-.494.284-1.098 0-.603-.315-1.097-.7-1.097-.384 0-.512.494-.284 1.097zm-15.258-.365c.244.402.59.73.764.73.175 0 .318-.328.318-.73 0-.402-.344-.732-.764-.732-.42 0-.564.329-.318.732zm9.744-5.896l.001.001c0 .379.27.858.6 1.066.332.207.602-.103.602-.69 0-.585-.27-1.065-.603-1.065-.33 0-.6.31-.6.688zm12.5-.825h-.002c-.208.527-.183 1.158.057 1.4.24.244.41-.188.38-.96-.035-.85-.205-1.025-.435-.44zm-.805-8.56v-.001c.183.559.983 1.051 1.776 1.093 1.143.061 1.377-.285 1.12-1.645-.178-.948-.81-1.724-1.4-1.724-.676 0-.916.423-.646 1.135.272.723.136.952-.378.63-.485-.304-.674-.101-.472.512zm17.405-2.414h.001c-.209.528-.183 1.159.057 1.402.238.243.41-.19.378-.96-.036-.852-.206-1.025-.436-.442zm-15.252 17.194c.576.234.404.407-.436.442-.76.032-1.187-.141-.947-.384.24-.243.863-.268 1.383-.058zm-41.34-4.987v-.001c.022.403-.275.238-.66-.365-.385-.605-.682-1.591-.66-2.195.026-.723.25-.599.66.367.34.804.638 1.792.66 2.194zm57.085-6.95v.001c0 .402-.145.732-.319.732-.174 0-.519-.33-.764-.733-.245-.4-.102-.73.318-.73.421 0 .765.33.765.73zm-44.39-2.925c-.246.402-.59.73-.766.73-.175 0-.318-.328-.318-.73 0-.402.344-.732.764-.732.42 0 .564.33.32.732zm56.927-6.964v-.005c-.233.611-.53 1.113-.663 1.113-.134 0-1.364-.67-2.732-1.49-1.37-.819-2.77-1.439-3.11-1.377-1.52.277-2.248-.187-3.033-1.93-.5-1.117-1.174-1.66-1.67-1.35-.495.31-.635.199-.347-.273.266-.438.178-.986-.196-1.22-.372-.234-.827.153-1.01.863-.252.981-.352.896-.415-.356-.065-1.267-.52-1.647-1.977-1.647-1.563 0-1.743-.182-1.033-1.05.613-.749.646-1.456.113-2.464-.41-.777-.54-1.621-.29-1.875.251-.253.037-.463-.473-.463-.728 0-.743-.23-.07-1.05.59-.721.638-1.47.154-2.388-.495-.937-.383-2.099.377-3.887 1.243-2.92 1.332-10.712.14-12.167-.586-.716-.562-2.247.086-5.73.487-2.613.672-5.613.412-6.663-.35-1.413-.23-1.794.462-1.47.514.24 1.503.64 2.198.888.997.357 1.226 1.167 1.083 3.842-.1 1.865-.344 3.555-.542 3.755-.2.201-.73 1.024-1.18 1.828-.638 1.14-.574 1.89.292 3.4l1.11 1.936 2.462-1.402c1.354-.77 2.765-1.21 3.138-.978.371.233.675.033.675-.443 0-.558.716-.721 2.016-.458 1.454.295 2.207.057 2.707-.857 2.254-4.123 3.72-5.943 4.79-5.947.666-.003 1.763-.564 2.436-1.247 1-1.012 1.148-2.098.8-5.884-.385-4.165-.283-4.698.99-5.175 1.367-.512 1.35-.632-.48-3.442-1.044-1.601-2.422-3.335-3.062-3.853-.984-.796-1.007-1.044-.15-1.58.772-.484.6-.696-.72-.886-.954-.138-1.842-.825-1.974-1.528-.132-.705.108-1.28.533-1.28.425 0 1.395-.63 2.155-1.4.791-.802 3.794-1.931 7.038-2.648 3.111-.685 8.625-2.36 12.253-3.72 6.571-2.464 10.131-3.132 9.283-1.742-.245.403-.03.733.48.733 1.646 0-1.789 1.853-7.337 3.96-2.977 1.13-6.063 2.325-6.857 2.655-2.738 1.139.734.762 6.992-.758 5.351-1.3 11.058-1.944 8.708-.984-1.482.606-1.023 1.709.722 1.733 1.584.021 1.588.043.18.895-.795.48-1.605.911-1.805.958-.197.046-1.497.599-2.887 1.226-1.388.628-6.424 1.705-11.188 2.393-4.764.689-9.088 1.487-9.608 1.773-1.507.829 8.86 2.701 17.585 3.176.417.022.8.603.852 1.29.055.754-.39 1.216-1.12 1.16-.778-.06-1.136.365-1 1.188.126.758-.242 1.28-.902 1.28-.614 0-1.114.35-1.114.78 0 .448-.616.583-1.444.315-.793-.254-1.443-.143-1.443.25 0 .392-1.624.939-3.608 1.215-1.986.276-3.61.802-3.61 1.166 0 .689.955.916 3.003.712.66-.065 1.426.253 1.702.708.314.513-.003.77-.838.68-3.058-.326-3.348.036-1.448 1.82 1.05.987 1.91 2.119 1.91 2.515 0 .398-1.193.826-2.653.95-2.582.221-2.606.25-.902 1.085.963.472 2.726 1.083 3.916 1.36 2.114.489 2.126.517.502 1.145-1.138.44-3.254.198-6.678-.764-2.757-.774-5.013-1.3-5.013-1.17 0 .129 2.192 1.576 4.872 3.216 2.68 1.639 6.172 4.121 7.76 5.515 2.717 2.386 2.827 2.636 1.86 4.236-.565.934-1.229 2.687-1.477 3.894-.382 1.87-.739 2.16-2.402 1.96-1.074-.13-1.952-.043-1.952.192 0 .236.406 1.093.902 1.903.732 1.197.718 1.592-.07 2.09-.535.337-1.022 1.437-1.082 2.445-.068 1.135-.452 1.697-1.012 1.48-.496-.193-.902.005-.902.44s-1.163 1.869-2.583 3.187c-1.418 1.318-3.22 3.05-4 3.85-1.12 1.145-1.547 1.247-2.01.487-.47-.769-.68-.73-1.03.193-.286.757-.04 1.157.71 1.157 1.93 0-.196 1.957-2.67 2.46-1.19.24-2.355.938-2.587 1.55zm-2.793-2.546c.537.88.462.88 1.805 0 .871-.57.757-.71-.585-.72-.93-.006-1.47.312-1.22.72zM114.166 257.67l.001.001c0 .348-.568.627-1.264.62-1.08-.008-1.106-.113-.18-.73.918-.61.93-.82.075-1.38-.863-.562-.863-1.02 0-3.19.554-1.394 2.144-3.481 3.534-4.638 1.39-1.157 2.081-1.532 1.536-.832-.907 1.165-.725 1.282 2.165 1.387 1.736.064 3.573.098 4.08.078.66-.027.555.54-.36 1.967-1.97 3.075-6.153 6.332-7.963 6.202-.894-.063-1.624.169-1.624.515zm12.702-.945c-.473.776-3.3.666-4.65-.18-.459-.287-.834-.119-.834.376 0 .493-.222.672-.492.398-1.167-1.183 10.28-11.11 15.223-13.203l2.754-1.168-1.276 2.01c-1.263 1.988-1.26 1.996.155.728.788-.704 1.788-1.28 2.223-1.28.434 0 1.788-.852 3.01-1.894 2.294-1.957 2.526-1.957 1.784 0-.24.635-.777.94-1.194.68-.458-.287-.542-.12-.212.42.3.49 1 .717 1.555.5 1.948-.757.983 1.276-1.877 3.95-1.588 1.486-2.886 3.008-2.886 3.383 0 1.554-7.373 6.025-7.8 4.73-.175-.534-.684-.554-1.59-.064-.735.4-1.81.54-2.395.31-.585-.226-1.258-.09-1.498.304zm-15.29-3.28h.001c-.25.66-.745 1.2-1.1 1.2-.928 0-.798-.423.454-1.477.92-.773 1.025-.728.645.277zm-1.17-1.665l.002.001c-2.767 2.506-4.907 3.363-4.907 1.968 0-.36-.323-.45-.72-.2-.397.248-.722.062-.722-.414 0-.572-.736-.716-2.166-.426-1.83.37-2.166.21-2.166-1.03 0-.808-.569-1.652-1.263-1.878-2.782-.9-4.512-2.035-4.512-2.96 0-.536-.689-.974-1.532-.974-1.348 0-1.412-.149-.542-1.237.674-.842.703-1.062.09-.69-.497.303-.902.388-.902.19 0-.196 2.725-2.026 6.055-4.066 3.896-2.386 6.872-3.706 8.344-3.706 1.258 0 2.102.306 1.872.68-.538.883.456 1.48 2.792 1.676 1.266.106 1.87.583 1.87 1.483 0 .73.494 1.52 1.1 1.755.85.33.912.66.272 1.44-.66.808-.516 1.012.722 1.012 1.508 0 1.52.066.38 2.376-.644 1.31-2.473 3.558-4.067 5zm45.29-4.5l.002.002c-.713 1.166-1.13.94-.64-.35.234-.62.58-.97.77-.78.19.192.13.7-.132 1.128zm-39.053-1.2v.001c-.27.723-.675 1.128-.897.903-.222-.226 0-.816.493-1.312.714-.717.796-.632.404.408zm-28.662-3.008l.001-.001c-2.937 1.548-3.454 1.6-1.607.158 2.206-1.724 3.972-2.6 3.952-1.96-.009.316-1.066 1.128-2.346 1.803zm98.55-.374v-.001c-.957 2.392-1.15-1.908-.229-5.028.548-1.855 1.23-2.758 2.055-2.718.758.036.885.2.328.428-.5.204-.724.672-.5 1.04.224.368.064.67-.356.67s-.764.96-.764 2.135c0 1.174-.24 2.737-.534 3.474zm-10.343-2.135c-.045 1.783-.122 1.846-.67.55-.85-2-.85-2.56 0-2.56.396 0 .698.904.67 2.01zm-7.25 1.055l-.004-.004c-.046.527-.234.381-.414-.323-.404-1.563-1.667-1.703-1.667-.183 0 .604-.33 1.098-.736 1.098-.846 0-.25-3.081 1.137-5.877.506-1.02 1.152-3.11 1.436-4.644.36-1.944.705-2.491 1.135-1.804.473.757.618.679.628-.336.007-.728.302-1.142.657-.918.356.223.85-.133 1.1-.793.25-.66.656-.992.904-.74.25.251 1.135-.308 1.97-1.244 2.996-3.362 8.41-7.988 8.84-7.552.24.244-.853 2.02-2.43 3.947-3.668 4.482-5.368 7.171-4.858 7.686.22.223-.365 1.02-1.3 1.77-1.879 1.506-3.072 3.924-1.937 3.924.47 0 .452.516-.048 1.464-.425.803-1.248 1.463-1.83 1.463-.587 0-1.057.671-1.057 1.506 0 .828-.325 1.304-.722 1.054-.397-.249-.759-.021-.804.506zm-32.6-1.124c-.396.64-.96.64-2.32 0-1.839-.864-2.42-1.942-1.046-1.942.42 0 .573-.313.34-.695-.479-.785 2.395-2.585 3.057-1.915.236.24 1.346-.453 2.466-1.54 1.55-1.504 2.035-1.694 2.035-.794 0 1.222-1.558 3.154-2.914 3.612-.425.144-.845.749-.935 1.344-.089.597-.396 1.466-.683 1.93zm141.285-4.084h.001c-.518.849-1.12.843-2.474-.024-.584-.373-.852-.893-.597-1.153.697-.705 3.55.389 3.07 1.177zm-175.448-3.703v-.001c-2.337 1.083-4.385 1.853-4.55 1.713-.166-.142.646-1.236 1.804-2.43 2.13-2.199 3.497-2.612 5.754-1.732.922.358.152.985-3.008 2.45zm34.27.444v.001c-2.074 1.167-2.58 1.217-3.13.317-.6-.985 2.16-2.32 3.62-1.752 1.055.41.99.604-.49 1.434zm-8.71-1.603c-1.723 1.863-3.407 2.58-2.277.97.352-.503.631-1.573.618-2.377-.013-.885.713-1.787 1.84-2.285 3.371-1.488 5.017-1.854 5.017-1.114 0 .398-.977.94-2.172 1.206-1.194.266-1.99.781-1.768 1.144.222.364-.344 1.469-1.258 2.456zm83.77.33l.002-.001c-1.992.764-2.852.32-1.318-.68.932-.607.93-.777-.018-1.394-.93-.608-.89-.842.29-1.718.755-.559 1.14-1.394.857-1.857-.283-.464-.312-1.175-.065-1.58.276-.452.9-.282 1.613.442.927.938.993 1.458.327 2.538-.46.746-.646 1.862-.413 2.48.28.736-.157 1.343-1.275 1.77zm-78.903.043c-.23.377-1.048.64-1.818.58-1.695-.13-1.252-.728.768-1.04.808-.125 1.28.082 1.05.46zm144.15-.436c.496.203.09.37-.902.37s-1.399-.167-.902-.37c.497-.203 1.31-.203 1.804 0zm1.992-2.084h.001c-.49.6-1.262.85-1.712.56-.45-.29-1.063-.535-1.363-.54-.59-.013-.768-1.11-.18-1.11h2.254c1.594 0 1.752.172 1 1.09zm-185.51.72v.002c-2.273.45-2.443.353-1.063-.61 2.002-1.397 6.003-2.522 9.155-2.572 4.72-.08 3.632 1.21-1.775 2.1-2.879.477-5.722.962-6.317 1.08zm179.008-1.078c0 .402-.306.732-.68.732-.373 0-.88-.329-1.126-.732-.244-.402.06-.73.68-.73.62 0 1.126.328 1.126.73zm-144.723-3.285v-.002c-2.007.678-4.429.222-5.167-.975-.674-1.095-.544-1.51.73-2.33.853-.55 2.037-1.05 2.633-1.11.595-.062 2.058-.33 3.248-.597 1.192-.267 3.14-.179 4.332.195 2.064.647 2.09.702.54 1.184-.894.279-1.624.954-1.624 1.504 0 .549-.893 1.198-1.985 1.443-1.09.244-2.31.553-2.707.688zm-21.896-.123l.002.001c-.662.183-2.502.228-4.09.098-1.588-.129-3.358-.26-3.933-.292-.662-.035-.794-.31-.362-.75.377-.38 2.885-.92 5.573-1.2 4.287-.444 4.835-.364 4.45.653-.24.636-.98 1.307-1.64 1.49zm33.453-1.724h.001c-.559.916-3.257.99-3.257.09 0-.359.513-.853 1.143-1.097 1.795-.7 3.91-.52 3.91.33 0 .426-.302.586-.672.354-.37-.231-.875-.087-1.125.323zm97.746-1.712l-.795 2.09-2.156-2.56c-5.945-7.06-6.42-7.836-5.345-8.74.796-.671 1.524-.601 3.266.312 1.232.646 2.08 1.439 1.882 1.762-.198.324.61 1.592 1.792 2.818 1.928 1.998 2.07 2.446 1.356 4.318zm-137.092-.525h.003c-2.695.941-3.607.892-4.737-.253-.786-.797-.816-1.124-.128-1.404.492-.203-.08-.404-1.27-.45-2.01-.074-2.07-.153-.836-1.1.876-.673 1.173-1.516.873-2.476-.25-.8-.085-1.686.365-1.97.453-.284 2.771-.602 5.153-.708 2.937-.132 4.716-.595 5.524-1.44 1.121-1.173 1.042-1.183-1.334-.203-1.777.734-3.115.843-4.51.37-1.092-.371-1.984-.976-1.984-1.346 0-.368-1.098-.67-2.44-.67-2.438 0-4.518-1.484-3.51-2.506.293-.298.21-.476-.187-.394-2.368.484-2.562-.233-.42-1.556 1.93-1.19 2.244-1.667 1.444-2.18-.86-.552-.844-.659.096-.667.614-.007 1.555.4 2.09.903.78.734.868.728.442-.032-.29-.52-.135-1.426.345-2.012.704-.861.636-1.065-.36-1.065-.678 0-1.099-.411-.936-.913.162-.504 2.338-1.247 4.835-1.654l4.54-.74-4.594-2.163c-2.527-1.19-4.747-2.275-4.934-2.41-.4-.289 1.52-1.601 2.366-1.617.322-.005.358.36.08.815-.305.502-.11.693.5.486 1.14-.387 1.407-2.712.463-4.002-.463-.628-1.21-.656-2.79-.098-1.187.419-2.385.515-2.662.212-.278-.303-.099-.698.397-.878 1.904-.69.758-1.551-2.706-2.033-1.986-.277-3.61-.82-3.61-1.21 0-.388-.339-.494-.755-.234-.413.26-1.213.086-1.773-.386-.56-.471-1.358-.645-1.772-.385-.43.269-.754-.173-.754-1.033 0-.829.294-1.507.654-1.507.36 0 .47-.713.244-1.587-.323-1.257-.16-1.49.79-1.12.66.257 1.2.13 1.2-.28 0-.41-.995-1.098-2.21-1.528l-2.21-.78 1.488-1.605c1.892-2.04 1.9-3.34.02-3.34-1.264 0-1.357-.213-.667-1.52.442-.836 1.241-1.35 1.777-1.142.536.207 1.405-.157 1.93-.813.823-1.026.781-1.124-.307-.71-.695.264-1.263.239-1.263-.056 0-.294-1.92-.526-4.268-.516-2.348.01-4.144-.183-3.994-.43.152-.248-.163-1.06-.7-1.803-.625-.867-.746-1.758-.338-2.485.352-.624.95-2.028 1.332-3.118.381-1.092 1.978-2.807 3.548-3.81 1.57-1.003 3.084-2.203 3.364-2.663.282-.46 1.735-1.393 3.23-2.07 2.9-1.317 6.848-5.48 6.2-6.54-.214-.35.05-1.246.586-1.99.77-1.065 2.046-1.378 6.036-1.48 2.786-.071 5.4-.34 5.81-.596a.864.864 0 0 1 1.2.275c.25.409.11.744-.31.744s-.765.608-.765 1.352c0 .87-1.03 1.822-2.888 2.67-1.588.726-2.888 1.372-2.888 1.436 0 .063-.783 2.142-1.74 4.618l-1.743 4.503 1.742-1.158c.957-.635 1.742-1.467 1.742-1.845 0-.38.337-.48.75-.22.413.257.55 1.113.303 1.9-.383 1.22-.189 1.363 1.317.98 1.234-.314 1.895-.103 2.2.704.24.633.273 1.583.073 2.11-.2.53.456 1.405 1.466 1.952 1.006.546 1.83 1.313 1.83 1.703 0 1.172 2.321 2.522 3.706 2.154 1.187-.314 1.148-.56-.485-2.994-.978-1.46-1.778-3.07-1.778-3.58 0-.51-.263-.927-.585-.927-.957 0-3.216-8.634-2.752-10.514.267-1.078 2.276-2.984 5.312-5.038 5.113-3.46 8.244-4.726 12.46-5.034 1.39-.103 2.851-.4 3.247-.66 1.753-1.149 7.763-2.309 9.813-1.894 1.81.367 2.168.242 1.836-.638-.228-.602-.1-1.095.285-1.095 1.39 0 .656-2.055-1.166-3.265-1.786-1.186-1.812-1.298-.61-2.643.69-.773 1.73-1.406 2.31-1.406.74 0 .951-.553.707-1.846-.41-2.177.395-2.931 1.745-1.635 1.186 1.136 8.54 1.594 8.54.53 0-.414-.487-1.935-1.083-3.38-.595-1.444-1.083-2.801-1.083-3.016 0-.214.618.178 1.372.868.898.825 1.538.99 1.848.48.261-.428.288-1.086.058-1.46-.227-.375-.084-.888.32-1.142.454-.283.766.882.818 3.06.076 3.123.146 3.271.636 1.323.303-1.207.627-4.992.72-8.412.093-3.42.33-5.56.523-4.755.196.805.6 1.792.9 2.195.3.403.761 1.65 1.027 2.773.264 1.122.782 1.852 1.15 1.622.368-.23.548-.82.4-1.31-.148-.49-.463-2.29-.698-4-.263-1.896-.146-3.11.3-3.11.403 0 .736 1.4.743 3.11.005 1.71.325 3.603.71 4.206.57.894.7.801.71-.496.006-.877.562-2.152 1.234-2.832 1.15-1.165 1.252-1.157 1.707.13.267.753.225 2.076-.093 2.94-.744 2.018-.636 6.11.16 6.11.337 0 .612.484.612 1.074 0 .652.424.909 1.078.655.614-.239 1.266.084 1.52.754.244.645.897 1.172 1.45 1.172 1.163 0 1.343 1.166.283 1.83-1.156.724-.83 1.825.397 1.347.914-.355 1.027-.05.614 1.67-.493 2.05-.468 2.071.922.824.785-.703 1.89-1.29 2.453-1.303.564-.013 1.657-.507 2.427-1.097 2.075-1.591 2.782-1.315 2.36.923-.334 1.774-.272 1.853.552.71.75-1.038 1.005-1.088 1.32-.258.216.566.01 1.419-.454 1.894-.65.664-.534.744.5.344 1.223-.474 1.263-.359.423 1.236-.87 1.655-.846 1.694.394.66.725-.602 1.914-2.085 2.642-3.292.728-1.207 1.32-1.865 1.316-1.463-.013 1.103-1.675 5.525-3.163 8.413-1.568 3.043-.736 2.298 2.364-2.122 2.14-3.051 3.116-3.067 1.51-.025-.93 1.765-.115 1.855 1.227.135.878-1.127.94-.93.52 1.645-.262 1.61-1.082 3.8-1.822 4.87-1.62 2.34-1.743 3.328-.26 2.08 1.358-1.143 1.36-.648.004 2.767-.958 2.414-.958 2.56 0 1.3.592-.781 1.094-1.275 1.112-1.098.077.738.115 11.373.043 12.253-.042.527-.368.776-.724.553-.628-.394-1.518 4.029-1.518 7.554 0 2.568-1.434 7.594-2.527 8.858-.522.603-1.327 2.533-1.787 4.288-.535 2.037-1.324 3.319-2.182 3.547-.79.21-1.184.778-.956 1.38.243.645-.11 1.046-.953 1.08-2.769.113-4.905.744-5.447 1.61-1.067 1.702-.577 2.023 1.243.815 1.005-.667 2.061-.964 2.345-.664.287.304-.1.925-.86 1.38-.759.456-1.977 1.405-2.707 2.11-.73.703-1.51 1.28-1.736 1.28-.224 0-.204-.741.046-1.645.36-1.29.293-1.41-.3-.55-.417.604-.763 1.94-.77 2.97-.006 1.221-.756 2.433-2.146 3.476-1.176.88-2.5 1.6-2.94 1.6-.998 0-2.865 1.837-2.865 2.82 0 .963-3.539 3.763-4.753 3.763-.523 0-2.346.946-4.053 2.103-3.116 2.111-5.473 3.093-8.156 3.397-2.446.279-2.526.322-2.526 1.364 0 1.491-3.21 3.363-5.93 3.463-2.105.077-1.988.167 1.035.807 2.664.562 3.214.91 2.526 1.6-.483.485-1.448 1.098-2.143 1.365-.695.265-1.263.989-1.263 1.605 0 .658-.672 1.144-1.624 1.178-.893.032-1.218.224-.723.427.496.202.902.67.902 1.04 0 .933-9.205.846-9.513-.09-.162-.495-1.312-.38-3.292.328-3 1.073-8.848 1.314-8.848.366 0-.967 4.147-2.202 5.897-1.757 1.23.312 2.111.06 2.818-.81.943-1.158.898-1.193-.547-.413-1.93 1.043-2.394 1.066-2.394.12 0-.403.406-.733.903-.733.496-.002 2.851-.817 5.234-1.812 2.382-.994 5.306-1.821 6.496-1.837 1.554-.02 1.878-.212 1.148-.68-1.122-.72-10.993 2.574-18.626 6.216-4.337 2.07-5.973 3.48-3.175 2.74.75-.199 1.57-.02 1.825.397.275.45-.645.931-2.265 1.184-1.499.235-3.539.71-4.532 1.057zm21.13-5.508v-.001c-.24.243.186.415.946.385.841-.035 1.012-.209.436-.442-.522-.212-1.142-.186-1.382.058zm-18.583-7.118c-.782.537-1.082.975-.662.975.42 0 .948-.188 1.178-.42.228-.232.994-.507 1.704-.612.71-.106 1.417-.575 1.57-1.043.322-.975-1.558-.43-3.79 1.1zm16.943-1.54v-.001c0 .177.505.322 1.125.322s.922-.333.672-.743c-.412-.676-1.797-.351-1.797.422zm-3.97-1.873c.554.908 1.14.908 2.526 0 .841-.55.63-.712-.946-.72-1.17-.007-1.838.298-1.58.72zm9.744-3.377h-.002c0 .154.812.438 1.806.63.992.192 1.804.066 1.804-.28 0-.347-.813-.63-1.803-.63-.993 0-1.805.125-1.805.28zm-12.054-1.115c.872-.045 3.862.115 6.642.355l5.05.435-5.05-1.03c-6.075-1.238-9.27-1.386-8.67-.4.242.396 1.154.684 2.028.64zm-5.63-2.092c1.987.865 2.693.865 2.165 0-.245-.402-1.157-.708-2.027-.68-1.525.05-1.53.074-.138.68zm-3.248-.73v-.001c0 .4.344.73.764.73.421 0 .564-.33.318-.73-.244-.402-.589-.732-.764-.732-.175 0-.318.329-.318.733zm33.196-3.285c-.973 1.188-.21 1.438 1.347.438.595-.382.698-.805.263-1.078-.395-.247-1.12.04-1.61.64zm16.736-4.52v.002c-.338 1.764 1.076 1.502 1.536-.286.247-.957.081-1.4-.456-1.22-.466.157-.952.834-1.08 1.504zm-3.015-1.706v.001c0 .4.142.73.317.73.175 0 .52-.33.765-.733.245-.4.102-.73-.318-.73s-.764.329-.764.732zm-66.807-11.037v-.001c.267.437.872.769 1.345.737 1.648-.111 2.67-.804 2.235-1.517-.24-.394.13-.613.823-.486.693.128 1.4-.167 1.567-.655.22-.632-.48-.786-2.43-.532-3.04.394-4.274 1.25-3.54 2.454zm-.315-6.6v.002c-.988.279-1.475.686-1.082.906.784.44 5.214-.39 5.924-1.108.574-.583-2.52-.454-4.842.2zm37.04-5.516h-.004c4.346 2.303 5.747 2.661 11.91 3.037 5.67.348 7.248.216 8.385-.7.771-.622 2.101-1.13 2.956-1.13 2.001 0 3.588-1.817 4.794-5.487 1.156-3.525 1.134-7.275-.06-10.23-1.802-4.454-3.136-6.96-3.708-6.96-.322 0-1.017-.412-1.542-.915-.524-.502-2.578-1.72-4.562-2.706-2.737-1.36-5.125-1.866-9.897-2.1-5.365-.262-6.718-.081-9.202 1.232-1.603.847-2.915 1.383-2.915 1.19 0-.58-6 1.984-8.12 3.47-1.354.95-1.984 2.032-1.984 3.412 0 1.797.772 3.597 4.827 11.257 1.202 2.27 2.038 2.877 9.122 6.63zm13.08-6.028v-.002c-1.452 2.905-2.05 3.518-2.807 2.88-2.464-2.072-2.982-12.796-.71-14.706 2.057-1.732 5.36 2.433 5.36 6.76 0 .758-.83 3.038-1.843 5.068zm-24.142 7.444h.001c-.962.36-.962.41 0 .44 2.033.068 3.388-1.327 3.45-3.55.068-2.402-.845-2.974-1.592-.998-.254.67-.112 1.44.316 1.71.538.336.49.722-.155 1.24-.516.413-1.424.934-2.02 1.158zm-25.263-.088c0 .335.65.61 1.445.61 1.654 0 1.936-1.115.43-1.7-1.062-.414-1.875.06-1.875 1.09zm7.383-6.57c.157.48.671 1 1.143 1.16.527.178.69-.157.42-.87-.503-1.33-1.996-1.605-1.563-.29zm95.835 56.07v-.001c0 .336-.49.61-1.09.61-.942 0-.956-.204-.092-1.524.55-.838 1.352-1.524 1.782-1.524.43 0 1.278-.658 1.882-1.463.91-1.209 1.217-1.283 1.77-.433.368.567.506 1.46.308 1.984-.357.941-2.967 2.165-4.017 1.885-.298-.08-.543.129-.543.466zm-54.856-1.32l.001-.002c0 .39-.487.71-1.084.71-.594 0-1.08-.128-1.08-.288 0-.157.486-.477 1.08-.707.596-.233 1.083-.103 1.083.287zm143.45-2.742h-.002c1.097.168.371.31-1.613.316-1.985.004-2.883-.132-1.995-.306.888-.174 2.512-.178 3.61-.01zm-78.668-.69l.004-.001c-1.428.583-1.868.535-2.354-.26-.248-.408-.708-.583-1.02-.388-.312.196-.424-.406-.248-1.336.253-1.345.681-1.623 2.076-1.353 1.418.276 2.6-.541 6.093-4.204 2.384-2.5 4.894-4.63 5.578-4.73 2.051-.304 1.848-2.472-.452-4.802-1.19-1.206-2.5-2.192-2.91-2.192-.409 0-1.563-.83-2.563-1.844-1-1.013-2.803-2.042-4.003-2.286-1.2-.243-2.185-.738-2.185-1.1 0-1.003 3.372-2.085 6.492-2.085 1.534 0 3.276.493 3.872 1.098 1.715 1.738 3.35 1.36 3.35-.775 0-1.047.315-1.674.715-1.424.392.245.544-.002.338-.55-.427-1.123 2.088-4.432 2.81-3.7.26.26.475 1.49.48 2.73.013 2.586.572 3.64 2.267 4.27 1.27.474 3.856-1.773 3.016-2.623-.265-.268-.097-.488.373-.488.538 0 .698-.64.428-1.727-.37-1.497-.109-1.792 1.966-2.212 2.038-.413 2.662-.177 4.202 1.59 1.927 2.209 4.337 3.501 4.337 2.325 0-.39-.246-.71-.546-.71-.458 0-2.554-3.95-2.718-5.12-.027-.201-.797-1.814-1.71-3.584-1.784-3.455-8.06-9.997-10.278-10.71-.92-.296-1.35-1.126-1.35-2.602 0-1.196-.458-2.346-1.022-2.566-.562-.218-1.862-1.626-2.89-3.13l-1.87-2.733 1.22-7.637c.67-4.2 1.43-7.802 1.688-8.002.258-.202.52-2.488.583-5.082.07-2.883-.209-4.918-.717-5.235-.455-.286-.915-2.6-1.02-5.142-.106-2.542-.523-4.733-.928-4.87-.404-.137-1.13-2.038-1.612-4.224-.852-3.85-1.656-4.94-2.27-3.074-.162.497-.884-.655-1.602-2.56-.718-1.903-1.548-3.463-1.848-3.463-.298 0-.765-1.199-1.038-2.664-.367-1.987-.194-2.963.683-3.84 1.08-1.08 1.232-1.075 1.874.07.385.686 1.822 2.454 3.195 3.93 1.373 1.475 2.321 2.972 2.105 3.325-.215.352.08.642.657.642 1.125 0 1.925 1.506 1.925 3.628 0 .723.683 1.775 1.517 2.335 1.21.815 1.56 1.905 1.727 5.392.117 2.405.287 4.455.377 4.555.093.1.25.512.35.914l.317 1.28c.074.302.452-.254.84-1.236.386-.98.5-2.723.25-3.87-.466-2.146.746-4.541 1.924-3.804.35.221.64-.093.64-.696 0-.604-.272-1.267-.602-1.474-.33-.207-.457-1.379-.277-2.603.303-2.094.937-2.524 3.587-2.424.496.02.912-.67.924-1.53.02-1.427.088-1.45.766-.27.41.713 1.036 1.113 1.394.89.356-.224.298.61-.13 1.85-1.144 3.33-.22 3.474 1.536.24 1.373-2.523 1.5-2.605 1.233-.793-.22 1.512-.075 1.835.575 1.287 1.37-1.151 1.738-.14.974 2.664-.387 1.42-.48 2.797-.21 3.06.27.265.985-.263 1.588-1.17l1.096-1.652 1.558 1.703c.857.937 1.974 1.562 2.48 1.392.695-.235.8.351.43 2.355-.474 2.557-.417 2.654 1.346 2.33 1.53-.281 1.967.034 2.597 1.862l.758 2.202 1.917-1.528c1.054-.84 2.434-1.528 3.064-1.528.83 0 .69.323-.52 1.183-3.685 2.616 2.683 3.886 7.703 1.536 2.44-1.143 3.448-1.287 4.69-.667.87.435 2.645 1 3.943 1.26 1.973.392 2.78.098 4.897-1.786 1.395-1.241 2.85-2.257 3.232-2.257 1.095 0 .815 1.917-.433 2.967-1.473 1.238-3.428 5.08-2.585 5.08.358 0 1.056-.494 1.55-1.097.494-.604 1.182-1.097 1.532-1.097.895 0 .788 2.475-.148 3.425-.56.567-.56 1.23 0 2.34.43.852 1.116 2.222 1.526 3.042.412.822.578 1.772.37 2.112-.207.341.108 1.026.698 1.523.591.498 1.075 1.482 1.075 2.188 0 .706.467 1.678 1.04 2.158.57.481.86 1.348.64 1.928-.218.579.03 1.574.552 2.214.523.638.88 2.098.795 3.245-.087 1.146.457 3.193 1.21 4.55.75 1.356 1.516 4.089 1.7 6.072.183 1.983.918 4.923 1.633 6.533.715 1.609 1.232 3.637 1.152 4.507-.08.87.222 3.647.675 6.172.79 4.418.757 4.64-.86 5.913-2.5 1.967-15.026 9.113-18.996 10.837-1.903.827-3.258 1.71-3.01 1.96.248.251 5.332-2.078 11.302-5.176 5.968-3.098 11.202-5.413 11.632-5.143.428.268.642 1.436.474 2.596-.167 1.16-.037 2.108.293 2.108 1.22 0 .542 2.608-.92 3.534-2.374 1.502-14.434 6.018-15.046 5.634-.302-.19-2.789.624-5.527 1.807-2.738 1.183-5.954 2.15-7.144 2.148-2.497-.004-4.596-1.368-4.153-2.7.178-.536-.314-.914-1.187-.914-.898 0-3.858-2.372-7.438-5.957-3.273-3.276-7.04-6.576-8.37-7.332-2.27-1.294-2.395-1.3-2.02-.08.614 2-.37 2.871-3.75 3.317-2.064.274-4.35 1.372-6.857 3.294-2.068 1.585-4.335 3.09-5.04 3.34-2.435.871-2.23 2.61.62 5.255 1.51 1.403 3.17 2.55 3.69 2.55.517 0 .94.414.94.92 0 .505 1.056 1.375 2.346 1.935 2.628 1.139 4.872 2.909 4.872 3.843 0 .872-4.152.772-4.692-.115-.247-.4-1.383-.73-2.527-.73-1.144 0-2.266-.307-2.496-.683-.228-.375-1.304-.713-2.388-.75-3.786-.132-5.588-.409-6.484-.992-.582-.378-.902-.187-.902.536 0 .855-.512 1.018-2.156.685-1.424-.289-2.792-.017-4.02.798-1.46.971-2.083 1.049-2.895.366-.822-.691-1.035-.638-1.035.256 0 .619-.406 1.292-.902 1.496zm53.953-17.073h.001c-.554.91-.304.91 1.083 0 .65-.425.74-.713.223-.72-.473-.005-1.06.32-1.307.72zm4.693-1.774v-.002c0 .487.934.287 2.707-.58.894-.437 1.624-1.047 1.624-1.357 0-.31-.976-.071-2.166.532-1.19.602-2.165 1.235-2.165 1.407zm-15.652-24.68v-.003c1.116.469 2.254.817 2.526.773 4.136-.671 6.946-1.547 8.406-2.624.982-.726 1.797-1.556 1.81-1.846.012-.288.515-.333 1.115-.1.6.234 1.593.003 2.207-.513 1.673-1.408 3.197-5.625 3.197-8.848 0-3.257-1.628-7.687-3.455-9.402-2.245-2.108-7.287-3.653-11.897-3.645-5.462.009-10.82 2.296-13.804 5.886-1.822 2.195-1.984 2.82-1.59 6.14.648 5.463 3.18 10.285 6.205 11.825 1.39.706 2.688 1.334 2.888 1.394.198.06 1.275.493 2.392.963zm5.126-4.17h.001c-.212.348-.953.633-1.648.633-.768 0-1.72-1.073-2.435-2.743-1.79-4.185-2.228-7.847-1.286-10.743 1.223-3.752 3.08-3.44 5.07.85 1.303 2.811 1.517 4.196 1.143 7.413-.252 2.177-.633 4.243-.845 4.59zm-7.88-33.016c.245.402.57.73.723.73.15 0 .475-.328.72-.73.246-.402-.08-.732-.72-.732-.643 0-.968.329-.723.732zm26.095-4.78c-.224.592-.13 1.25.21 1.46.511.321 1.486-1.14 1.486-2.226 0-.789-1.336-.184-1.696.766zm-45.932-6.74c-.012 2.185.342 2.578.928 1.03.204-.538.081-1.443-.273-2.01-.468-.75-.647-.484-.655.98zM94.487 196.35v.001c.701.184.301.349-.889.364-1.19.015-1.766-.137-1.276-.337.488-.201 1.463-.213 2.165-.028zm-74.152-35.874l-.005-.001c-1.478.576-3.279.628-3.792.108-.41-.415 1.175-5.95 2.44-8.515.487-.988.137-1.518-1.603-2.43-2.064-1.082-2.142-1.26-1.078-2.452 1.287-1.441 1.525-4.137.425-4.827-.396-.249-.724-2.325-.726-4.615-.003-2.29-.49-5.106-1.083-6.258-.593-1.153-1.078-2.829-1.078-3.725 0-.896-.456-3.163-1.012-5.038-.557-1.875-.76-3.568-.45-3.763.31-.194.747.574.97 1.704.48 2.432 5.044 10.4 6.968 12.165 1.534 1.408 4.436 1.25 4.93-.267.243-.748-.162-.922-1.522-.658-1.017.196-2.152.16-2.52-.08-1.298-.85-5.067-9.265-5.93-13.24-.894-4.12-2.497-9.464-3.62-12.07-.346-.805-1.15-3.438-1.786-5.852-.634-2.414-1.588-6.036-2.12-8.046-.53-2.012-1.6-5.14-2.38-6.95-.778-1.811-1.975-6.584-2.66-10.606-.686-4.024-1.39-8.138-1.566-9.144C.961 64.911.641 58.161.43 50.921c-.52-17.542.892-29.06 4.48-36.575 2.088-4.374 5.718-9.339 8.205-11.224 7.362-5.574 19.05-2.834 32.047 7.509 7.02 5.59 17.864 16.78 24.11 24.88 6.603 8.563 16.231 19.311 17.356 19.373.533.032 1.14.715 1.347 1.52.208.804.75 1.464 1.202 1.464.455 0 1.24.67 1.745 1.49.505.82 1.185 1.324 1.51 1.12.326-.205.958.442 1.404 1.435.447.993 1.295 1.805 1.885 1.805.591 0 2.222 1.022 3.626 2.27 1.402 1.249 2.55 2.01 2.55 1.692 0-.318.975.368 2.167 1.524 2.678 2.601 2.82 3.761.25 2.055l-1.913-1.272.974 5.8-1.523-2.016c-1.647-2.179-3.173-2.025-2.46.248.523 1.669-.558 1.85-1.823.305-1.193-1.456-2.236-1.403-1.673.084.356.94.13 1.079-1.106.682-1.138-.366-1.552-.194-1.552.646 0 .632-.244 1.19-.542 1.24-2.932.506-4.333.693-5.356.713-.662.013-1.382.496-1.6 1.073-.218.577-1.016 1.047-1.773 1.047-.959 0-1.542.721-1.924 2.376-.3 1.308-.504 2.626-.45 2.926.15.848-.845.611-2.387-.572-.77-.59-1.745-1.068-2.165-1.062-.422.006-.278.33.318.72.933.61.915.71-.135.72-.77.007-1.18.55-1.11 1.474.06.805.286 1.463.502 1.463.218 0 .81.675 1.32 1.5.88 1.43.847 1.45-.73.448-2.223-1.414-7.065-2.254-7.065-1.224 0 .433-.73 1.072-1.624 1.42l-1.623.633 1.915.762c2.14.852 3.376 2.327 1.916 2.292-.52-.012-1.576-.507-2.346-1.097-.77-.591-1.878-1.074-2.458-1.074-.877 0-.854.228.138 1.338.657.736 1.195 1.524 1.195 1.752 0 .227-1.218.127-2.708-.223-3.682-.867-3.787-.852-3.8.608-.018 2.106-1.155 3.292-3.155 3.292-1.037 0-1.887.288-1.887.64 0 .773-2.939.832-4.024.08-.425-.296-.983-1.114-1.24-1.818-.498-1.368-2.318-1.727-3.01-.593-.23.377.157 1.026.86 1.44.795.47.918.763.325.776-.526.012-1.428-.458-2.006-1.044-.579-.586-1.61-.864-2.296-.614-.91.331-.77-.073.53-1.517.972-1.08 2.157-1.816 2.63-1.63.475.183 2.895-.64 5.38-1.83 2.483-1.19 5.084-2.252 5.777-2.36.696-.106 1.758-.61 2.36-1.116.603-.507 1.798-.975 2.656-1.04.858-.065 1.87-.705 2.248-1.422.38-.721 1.502-1.303 2.51-1.303 2.652 0 1.371-1.446-1.373-1.55-2.175-.083-2.133-.13.763-.836 4.492-1.094 3.864-2.291-.938-1.788l-4.006.42 2.007-1.597c1.104-.878 2.308-1.497 2.676-1.375.37.121.937-.208 1.267-.732.445-.713.6-.629.607.327.006.704.291 1.28.633 1.28s.462-.847.266-1.884c-.215-1.14-1.067-2.157-2.165-2.58-.996-.383-1.592-.918-1.326-1.188.268-.27 1.665-.508 3.108-.53 1.442-.02 2.732-.368 2.864-.774.134-.404-1.535-1.557-3.71-2.56-2.172-1.002-3.96-2.07-3.97-2.372-.01-.301-.75-.55-1.644-.553-1.846-.006-5.842-2.428-5.152-3.124.248-.253.924.019 1.5.602 1.4 1.419 3.39 1.395 2.85-.035-.228-.603-.06-1.096.372-1.096 1.421 0-.967-2.232-3.567-3.332-1.927-.817-2.403-1.381-2.113-2.504.386-1.495.464-1.469-4.526-1.523-1.366-.016-1.543-.178-.743-.68.858-.537.658-1.004-1.092-2.53-1.179-1.03-2.526-1.727-2.994-1.547-.468.18-2.065.558-3.545.838-2.449.467-2.645.388-2.135-.87.307-.761.733-2 .945-2.753.213-.754 1.556-2.505 2.986-3.89l2.6-2.52-3.026 1.946c-1.665 1.072-3.37 1.733-3.79 1.47-.42-.263-.763-.016-.763.55 0 .564-.694 1.653-1.542 2.42l-1.543 1.392.323-2.3c.26-1.848.101-2.223-.804-1.905-1.182.418 2.28-2.908 5.358-5.148 1.546-1.125 1.672-1.506.91-2.743-.62-1.007-1.683-1.437-3.555-1.437-1.47 0-2.874-.33-3.12-.733-.246-.405-1.288-.52-2.316-.26-1.309.333-1.715.225-1.357-.363.281-.461.19-.837-.203-.837-1.182 0-2.98 2.207-2.98 3.66 0 .749-.65 1.571-1.444 1.826-.794.255-1.444.901-1.444 1.435 0 .533-.559 1.187-1.243 1.453-1.065.416-1.09.582-.18 1.176.933.608.93.778-.02 1.398-.788.51-1.216.362-1.573-.55-.27-.689-.514-2.139-.542-3.222-.028-1.082-.39-2.182-.808-2.442-.517-.325-.49-.799.086-1.502.463-.566.686-1.853.496-2.86-.19-1.008-.065-1.833.275-1.833.342 0 .622-.318.622-.708 0-.39-.427-.544-.947-.34-.538.208-1.396-.514-1.984-1.67-.57-1.12-1.362-2.279-1.76-2.574-1.335-.993-4.873-.572-6.05.72-.643.704-1.63 1.28-2.19 1.28-.564 0-1.324.987-1.69 2.194-.366 1.207-1.169 3.327-1.782 4.71-1.405 3.17-1.833 8.943-.855 11.57.595 1.596.565 1.824-.147 1.112-.654-.657-1.15-.683-1.85-.093-1.244 1.047-1.22 2.087.05 2.087 1.163 0 2.01 2.697 2.243 7.154.09 1.723.375 3.347.635 3.61.26.263 2.335.572 4.61.686 2.276.114 4.95.314 5.944.444 1.135.15 2.44-.38 3.515-1.427.942-.916 1.974-1.5 2.294-1.3.845.53 1.443-1.896 1.03-4.182-.196-1.08-.063-2.147.294-2.37.357-.225.498-1.549.312-2.945-.272-2.036.048-2.941 1.608-4.578 1.818-1.907 1.92-1.933 1.57-.407-.327 1.418-.194 1.535.996.888.872-.472 1.372-.483 1.372-.03 0 .392-.285.892-.635 1.112-.35.219-.8 1.037-1 1.817-.48 1.864.908 1.316 2.66-1.048 1.53-2.062 2.584-2.34 2.584-.68 0 1.747-4.76 8.88-6.852 10.27-1.026.682-2.46 2.592-3.188 4.246-2.334 5.303-4.458 11.6-4.052 12.01.216.218.901-.236 1.523-1.012.62-.774.9-.961.62-.414-.278.55-.102 1.25.392 1.56.707.443.715 1.124.037 3.21-.475 1.456-1.244 2.657-1.71 2.67-.465.01-.276.358.422.77 1.018.601 1.113 1.041.483 2.235-.816 1.545-.248 3.008.634 1.633.275-.43.99-.793 1.585-.805.595-.014 1.703-.284 2.463-.6.976-.408 1.23-.326.86.278-.286.471-.143.856.32.856.464 0 .644.494.404 1.097l-.91 2.282c-.396.998-.017 1.141 2.406.908 3.516-.34 3.826.927.798 3.257a116.453 116.453 0 0 0-4.39 3.617c-1.58 1.38-1.855 1.863-.87 1.53 1.28-.433 1.24-.257-.36 1.557l-1.804 2.045 1.804-.938c.993-.516 2.833-1.795 4.09-2.843 3.037-2.531 8.11-5.62 10.347-6.304 1.772-.541 1.78-.524.49.944-.725.82-2.268 1.892-3.43 2.38-1.163.487-2.113 1.192-2.113 1.565s-.893 1.498-1.985 2.498l-1.985 1.82 2.887-1.162c1.588-.639 3.196-1.473 3.573-1.855 1.067-1.078 1.473-.833 1.573.957.122 2.16-5.356 6.481-8.983 7.086-1.462.245-2.333.645-1.935.89.396.245 2.664-.183 5.04-.953 2.604-.842 4.99-2.19 6.006-3.39.93-1.096 1.505-1.614 1.28-1.154-.55 1.128.608 1.498 7.654 2.448 7.156.962 8.53 1.332 8.53 2.292 0 .4-.32.525-.712.28-.392-.246-1.397.2-2.234.99-1.1 1.038-1.386 1.911-1.033 3.146.44 1.535.305 1.485-1.31-.485-1.907-2.325-3.564-2.016-2.082.39 1.198 1.944 1.097 2.942-.245 2.422-.958-.373-1.064.186-.744 3.863.206 2.366.583 5.026.836 5.916.43 1.508.307 1.573-1.783.966-1.232-.358-2.242-.425-2.242-.148 0 .276.84 2.1 1.865 4.054 1.025 1.952 1.548 3.35 1.158 3.107-1.056-.661-1.596 1.432-.626 2.416.638.648.637.978-.006 1.38-.463.291-.81 1.018-.77 1.616.04.597-.19 2.177-.512 3.507-.458 1.899-1.264 2.745-3.744 3.925-1.736.827-3.316 1.764-3.51 2.082-.194.318-1.083.387-1.976.153-1.498-.39-1.54-.32-.54.92.825 1.024.868 1.417.18 1.65-.496.17-.902.714-.902 1.21 0 .495-1.136 1.45-2.526 2.12-1.39.673-2.526 1.518-2.526 1.88 0 .362-.65.832-1.447 1.042-.923.244-1.295.782-1.03 1.482.273.722-.16 1.276-1.26 1.616-.922.284-2.652 1.25-3.842 2.146-1.19.897-2.652 1.82-3.248 2.052zm-1.3-40.573h.002c.918.931 3.464 1.216 3.464.386 0-.27-.557-1.115-1.24-1.877-1.17-1.312-1.17-1.497 0-3.35.68-1.079 1.635-2.867 2.12-3.973.483-1.106 1.133-2.012 1.443-2.012.31 0 .564-.453.564-1.006 0-.556.487-1.42 1.083-1.92 1.335-1.124 1.401-2.194.135-2.194-1.262 0-4.827 3.821-4.827 5.173 0 .589-.812 2.283-1.804 3.763-1.953 2.91-2.315 5.616-.94 7.01zm29.45-14.806h.002c0 .178.323.323.72.323.397 0 .722-.349.722-.775 0-.426-.325-.572-.722-.322-.397.248-.722.597-.722.774zm133.054 15.928l.001-.001c-.266.27-.649.318-.856.11-.205-.208.012-.767.482-1.242.518-.526.853-.57.853-.11 0 .416-.216.975-.48 1.243zm-14.012-.67h.001c.03.77-.14 1.203-.38.96-.24-.242-.267-.874-.057-1.402.23-.584.401-.41.436.442zm81.87-.91l.001-.003c-.657.737-1.32 1.34-1.474 1.34-.154 0-.692-.392-1.197-.87-.737-.697-.653-1.135.417-2.22.733-.744 1.698-1.125 2.143-.847.49.307.604.174.29-.34-.283-.464-.17-.844.25-.844 1.17 0 .91 2.284-.43 3.784zm-52.333-.858h.001c0 1.006-.164 1.417-.364.914-.2-.503-.2-1.325 0-1.828.2-.503.363-.092.363.914zm-21.54.688c0 .425-.325.775-.72.775-.398 0-.723-.145-.723-.323 0-.177.325-.526.723-.774.396-.248.72-.104.72.322zm93.967-3.98h-.002c-.987 2.194-3.006 2.403-3.532.366-.207-.805-.686-1.463-1.063-1.463-.622 0-.399-1.331.738-4.387.328-.883.028-.844-1.542.2-2.175 1.443-2.558.957-.798-1.013 1.33-1.49.8-2.847-1.114-2.847-.912 0-1.417-.673-1.634-2.178-.174-1.198.033-2.536.46-2.976.552-.57.387-1.086-.58-1.81-.816-.61-1.176-1.482-.908-2.192.247-.648.707-1.015 1.027-.815.32.2 1.053.062 1.63-.308.823-.528.708-.673-.532-.683-2.048-.015-2.664-1.065-1.3-2.213 1.301-1.094 1.437-2.481.173-1.758-.497.282.538-1.01 2.3-2.87 1.762-1.86 3.381-3.2 3.598-2.98.218.22-.412 1.029-1.398 1.796-.987.77-1.469 1.43-1.072 1.47.398.038 1.292.182 1.988.318.757.146 1.075-.07.79-.537-.307-.504.077-.636 1.08-.37 1.81.479 2.123-.537.376-1.217-1.068-.415-1.05-.61.18-2.032.75-.866.905-1.302.347-.97-.684.408-.846.33-.498-.24.282-.464 1.652-.844 3.042-.844 1.634 0 2.354-.281 2.04-.795-.266-.438-1.096-.633-1.846-.435-.749.199-1.362.228-1.362.065 0-.479 14.624-12.057 14.89-11.787.133.135-.42 2.034-1.227 4.222-3.752 10.15-8.097 23.203-8.387 25.19-.176 1.208-.644 2.871-1.04 3.698-.397.827-.647 1.815-.557 2.195.088.38-.03 1.184-.26 1.788-.232.603-.795 2.33-1.255 3.84-.456 1.509-1.08 2.742-1.38 2.742-.302 0-.92.824-1.372 1.83zm-4.462-18.653v-.001c0 .4.487.73 1.082.73.596 0 1.083-.33 1.083-.73 0-.402-.487-.732-1.083-.732-.595 0-1.082.329-1.082.733zm-4.624-8.154h.001c-1.527 1.744-1.873 1.902-1.873.864 0-.39.731-1.095 1.624-1.57 1.616-.859 1.618-.854.248.706zm-211.932-.242v-.001c-.502.613-1.06.964-1.244.78-.5-.507.517-1.894 1.39-1.894.478 0 .424.42-.146 1.115zm38.27-4.562l.001-.001c0 .325-.78-.002-1.733-.725-.955-.723-1.635-1.419-1.515-1.547.362-.384 3.247 1.635 3.247 2.273zm181.248-2.612v.001c-2.08 1.792-3.35 2.175-2.51.755.413-.698.294-.72-.499-.1-.573.448-2.123.805-3.443.792-1.842-.017-2.126-.178-1.22-.693.65-.369 1.627-.497 2.17-.287.561.218 1.746-.625 2.746-1.955 1.147-1.523 2.863-2.653 4.925-3.243 3.818-1.09 5.306-2.193 6.016-4.456.482-1.542.392-1.629-.93-.912-.806.437-1.85.795-2.323.795-.636 0-.62-.29.06-1.12.8-.978.695-1.033-.813-.43-.953.383-3.773 1.74-6.267 3.02-4.25 2.179-6.653 2.459-6.653.774 0-1.266 12.34-11.748 19.85-16.862 3.97-2.703 8.304-5.482 9.63-6.175 1.328-.694 2.255-1.423 2.06-1.62-.655-.663-11.64 5.392-17.465 9.622-3.176 2.308-7.973 6.294-10.66 8.858-3.705 3.536-5.395 4.664-6.995 4.664-1.16 0-2.31.328-2.555.73-.733 1.201-1.996.828-1.513-.446.341-.9.145-1.06-.825-.67-.7.282-2.395.66-3.77.84-1.373.181-3.078.863-3.79 1.513-.85.782-1.29.882-1.29.297 0-.489-.325-.686-.722-.436-.397.248-.722.123-.722-.28 0-.402.327-.936.727-1.188.445-.278.27-.92-.453-1.65-1.092-1.106-1.33-1.026-3.19 1.084l-2.01 2.28-.442-1.783c-.564-2.278.323-3.923 3.328-6.173 1.321-.989 4.61-4.02 7.307-6.736 2.7-2.715 5.363-4.937 5.92-4.937.556 0 3.87-2.723 7.363-6.053 3.495-3.33 7.652-7.007 9.242-8.172 1.587-1.166 3.698-2.885 4.69-3.82 5.697-5.365 14.34-11.551 18.69-13.378 1.886-.792 2.634-.8 4.036-.04 1.91 1.037 3.124 3.49 3.594 7.25.336 2.701-1.464 12.702-2.715 15.066-.425.805-.884 2.528-1.02 3.83-.33 3.15-.688 3.96-4.9 11.08-3.467 5.86-4.383 6.776-11.635 11.63-2.73 1.828-6.19 4.568-11.024 8.734zm24.103-32.714c-.566.925.39.925 1.804 0 .933-.612.913-.712-.137-.72-.67-.008-1.42.317-1.667.72zM94.5 79.538v.001c0 .956-.073 1.736-.159 1.736-.087 0-.709-.617-1.383-1.37-1.154-1.293-1.145-1.391.16-1.737 1.075-.284 1.382.02 1.382 1.37zm162.835-2.313h.001c.234.62.13 1.126-.23 1.126-1.373 0-1.373-1.319-.003-2.576 1.323-1.214 1.691-1.155 1.245.198-.098.302-.463.453-.81.337-.346-.117-.437.295-.203.915zm-8.19.395v-.001c-1.348.845-1.957.228-.865-.877.463-.47 1.081-.611 1.375-.314.292.297.063.832-.51 1.192zm18.747-1.435h.001c-1.712 1.097-2.635.757-1.115-.41.764-.587 1.568-.887 1.784-.67.216.22-.085.706-.67 1.08zm-14.414.058v-.002c0 .403-.325.53-.722.28-.397-.249-.722-.781-.722-1.184 0-.402.325-.528.722-.278.397.249.722.781.722 1.184zm-14.076-.087c-.244.402-.589.732-.764.732-.175 0-.318-.329-.318-.732 0-.402.344-.73.764-.73.421 0 .564.328.318.73zm-128.842-4.39c0 .403-.143.733-.318.733-.176 0-.519-.329-.766-.733-.244-.4-.1-.73.32-.73.42 0 .764.33.764.73zm120.676-.496c.574.232.404.406-.436.442-.76.031-1.187-.142-.947-.385.24-.243.863-.269 1.383-.057zm-205.5-4.416c-.697 1.119-1.449 1.851-1.672 1.626-.22-.224.35-1.14 1.27-2.034l1.67-1.626-1.268 2.034zm27.936.027l.001-.002c.574.234.404.407-.436.442-.76.032-1.188-.141-.948-.384.24-.243.863-.269 1.383-.056zm.5-3.497l.001-.002c-3.203 1.174-3.523 1.205-3.523.337 0-.402.325-.73.722-.73.397 0 .722-.494.722-1.097 0-.604.343-1.097.763-1.097.422 0 .534.38.25.845-.303.498-.199.647.255.363.42-.264 1.326-.263 2.01.003.98.381.726.672-1.2 1.378zm-5.297-1.906v.001c-.626 1.027-2.556 1.005-2.556-.03 0-.446.487-.62 1.083-.388.595.23 1.083.047 1.083-.41 0-.457.195-.633.433-.393.237.243.22.79-.043 1.22zm7.55-1.882c0 .829-1.038.471-2.888-.995-1.188-.943-1.434-1.428-.722-1.423 1.163.008 3.61 1.648 3.61 2.418zm-6.858-.995h.001c.246.402.102.732-.318.732s-.764-.33-.764-.732c0-.402.143-.73.317-.73.174 0 .52.328.764.73zM34.77 56.407h.001c-1.386.908-1.636.908-1.082 0 .244-.403.834-.727 1.304-.72.517.006.427.293-.223.72zm12.586-1.98v-.001c-.27.723-.675 1.128-.897.903-.223-.226 0-.816.493-1.312.712-.717.794-.633.404.41zM32.146 42.88v-.001c.235.622-.123.8-1.09.544-1.31-.348-1.194-.64 1.282-3.21 1.5-1.555 3.22-2.827 3.825-2.827.638 0-.05.961-1.632 2.284-1.505 1.256-2.577 2.7-2.385 3.21zm8.21-3.457l.002-.001c-1.655.852-3.16 1.397-3.345 1.212-.54-.548 2.337-2.953 4.085-3.415 2.828-.75 2.374.6-.742 2.204z" />
</svg>
